<?xml version="1.0" encoding="UTF-8" standalone="no"?>
<svg width="180px" height="180px" viewBox="0 0 180 180" version="1.1" xmlns="http://www.w3.org/2000/svg" xmlns:xlink="http://www.w3.org/1999/xlink" xmlns:sketch="http://www.bohemiancoding.com/sketch/ns">
    <!-- Generator: Sketch 3.3.3 (12072) - http://www.bohemiancoding.com/sketch -->
    <title>180 - iPhone 6 Plus</title>
    <desc>Created with Sketch.</desc>
    <defs></defs>
    <g id="Page-1" stroke="none" stroke-width="1" fill="none" fill-rule="evenodd" sketch:type="MSPage">
        <g id="180---iPhone-6-Plus" sketch:type="MSArtboardGroup">
            <circle id="Oval-1" fill="#1B3D52" sketch:type="MSShapeGroup" cx="90.5" cy="90.5" r="89.5"></circle>
            <g id="star_filled" sketch:type="MSLayerGroup" transform="translate(90.500000, 90.000000) rotate(-19.000000) translate(-90.500000, -90.000000) translate(25.232005, 22.613774)" fill="#FFCA28">
                <path d="M122.195455,25.75507 L123.545638,28.518045 L126.564307,28.9606259 L124.379881,31.1108452 L124.895197,34.1476986 L122.195455,32.71478 L119.495713,34.1476986 L120.011029,31.1108452 L117.826603,28.9606259 L120.845272,28.518045 L122.195455,25.75507 Z" id="Shape" sketch:type="MSShapeGroup"></path>
                <path d="M31.6799911,0.10924586 L32.8785421,2.5619253 L35.5581993,2.95480216 L33.6190952,4.86354135 L34.0765391,7.55934136 L31.6799911,6.28734651 L29.2834431,7.55934136 L29.740887,4.86354135 L27.8017828,2.95480216 L30.4814401,2.5619253 L31.6799911,0.10924586 Z" id="Shape-Copy-2" sketch:type="MSShapeGroup"></path>
                <path d="M4.23646215,89.6297333 L5.4639014,92.1415287 L8.20814541,92.5438749 L6.22230378,94.4986198 L6.69077327,97.2593956 L4.23646215,95.9567424 L1.78215102,97.2593956 L2.25062051,94.4986198 L0.264778884,92.5438749 L3.00902289,92.1415287 L4.23646215,89.6297333 Z" id="Shape-Copy-3" sketch:type="MSShapeGroup"></path>
                <path d="M99.2022655,128.832406 L100.126116,130.722948 L102.191614,131.02578 L100.69694,132.497048 L101.04954,134.574988 L99.2022655,133.594527 L97.3549906,134.574988 L97.7075914,132.497048 L96.2129172,131.02578 L98.2784145,130.722948 L99.2022655,128.832406 Z" id="Shape-Copy-5" sketch:type="MSShapeGroup"></path>
                <path d="M15.0677229,81.8166752 L15.7503057,83.2134923 L17.2763881,83.4372382 L16.1720555,84.5242778 L16.4325728,86.0595537 L15.0677229,85.3351442 L13.7028731,86.0595537 L13.9633904,84.5242778 L12.8590578,83.4372382 L14.3851402,83.2134923 L15.0677229,81.8166752 Z" id="Shape-Copy-4" opacity="0.8" sketch:type="MSShapeGroup"></path>
                <path d="M127.755812,47.8710146 L128.615019,49.6292714 L130.53599,49.9109138 L129.145901,51.2792352 L129.473829,53.2117783 L127.755812,52.299921 L126.037794,53.2117783 L126.365722,51.2792352 L124.975633,49.9109138 L126.896604,49.6292714 L127.755812,47.8710146 Z" id="Shape-Copy" opacity="0.8" sketch:type="MSShapeGroup"></path>
            </g>
            <g id="astronaut" sketch:type="MSLayerGroup" transform="translate(90.500000, 90.000000) rotate(-22.000000) translate(-90.500000, -90.000000) translate(48.000000, 31.000000)">
                <path d="M77.03125,53.6363636 L7.96875,53.6363636 L7.96875,32.1818182 C7.96875,27.6227273 11.421875,24.1363636 15.9375,24.1363636 L69.0625,24.1363636 C73.578125,24.1363636 77.03125,27.6227273 77.03125,32.1818182 L77.03125,53.6363636 L77.03125,53.6363636 Z" id="Shape" fill="#0D47A1" sketch:type="MSShapeGroup"></path>
                <path d="M77.03125,91.1818182 L7.96875,91.1818182 C3.453125,91.1818182 2.13162821e-14,87.6954545 2.13162821e-14,83.1363636 L2.13162821e-14,55.5136364 C2.13162821e-14,48.0045455 5.046875,41.5681818 11.953125,39.9590909 L42.5,32.1818182 L73.046875,39.9590909 C80.21875,41.8363636 85,48.2727273 85,55.5136364 L85,83.1363636 C85,87.6954545 81.546875,91.1818182 77.03125,91.1818182 L77.03125,91.1818182 Z" id="Shape" fill="#29B6F6" sketch:type="MSShapeGroup"></path>
                <path d="M15.9375,109.954545 L69.0625,109.954545 L69.0625,38.8863636 L42.5,32.1818182 L15.9375,38.8863636 L15.9375,109.954545 Z" id="Shape" fill="#81D4FA" sketch:type="MSShapeGroup"></path>
                <path d="M42.5,32.1818182 L18.59375,38.0818182 C22.046875,47.4681818 31.34375,49.6136364 42.5,49.6136364 C53.65625,49.6136364 62.953125,47.7363636 66.40625,38.0818182 L42.5,32.1818182 L42.5,32.1818182 Z" id="Shape" fill="#1E88E5" sketch:type="MSShapeGroup"></path>
                <path d="M69.0625,24.1363636 C69.0625,42.3727273 57.109375,45.5909091 42.5,45.5909091 C27.890625,45.5909091 15.9375,42.1045455 15.9375,24.1363636 C15.9375,10.7272727 27.890625,1.77635684e-14 42.5,1.77635684e-14 C57.109375,1.77635684e-14 69.0625,10.7272727 69.0625,24.1363636 L69.0625,24.1363636 Z" id="Shape" fill="#4FC3F7" sketch:type="MSShapeGroup"></path>
                <path d="M61.09375,18.7727273 C61.09375,18.7727273 54.71875,16.0909091 42.5,16.0909091 C30.28125,16.0909091 23.90625,18.7727273 23.90625,18.7727273 L23.90625,29.5 C23.90625,37.2772727 34.53125,42.1045455 42.5,42.1045455 C50.46875,42.1045455 61.09375,37.8136364 61.09375,29.5 L61.09375,18.7727273 L61.09375,18.7727273 Z" id="Shape" fill="#263238" sketch:type="MSShapeGroup"></path>
                <path d="M42.5,21.4545455 C34.796875,21.4545455 29.21875,22.7954545 29.21875,22.7954545 L29.21875,29.5" id="Shape" stroke="#607D8B" stroke-width="9.375" sketch:type="MSShapeGroup"></path>
                <path d="M53.125,80.4545455 L31.875,80.4545455 C28.953125,80.4545455 26.5625,78.0409091 26.5625,75.0909091 L26.5625,59 C26.5625,56.05 28.953125,53.6363636 31.875,53.6363636 L53.125,53.6363636 C56.046875,53.6363636 58.4375,56.05 58.4375,59 L58.4375,75.0909091 C58.4375,78.0409091 56.046875,80.4545455 53.125,80.4545455 L53.125,80.4545455 Z" id="Shape" fill="#B3E5FC" sketch:type="MSShapeGroup"></path>
                <path d="M53.125,77.7727273 L31.875,77.7727273 C30.28125,77.7727273 29.21875,76.7 29.21875,75.0909091 L29.21875,59 C29.21875,57.3909091 30.28125,56.3181818 31.875,56.3181818 L53.125,56.3181818 C54.71875,56.3181818 55.78125,57.3909091 55.78125,59 L55.78125,75.0909091 C55.78125,76.7 54.71875,77.7727273 53.125,77.7727273 L53.125,77.7727273 Z" id="Shape" fill="#0D47A1" sketch:type="MSShapeGroup"></path>
                <g id="Group" transform="translate(-0.000000, 67.045455)" fill="#D84315" sketch:type="MSShapeGroup">
                    <rect id="Rectangle-path" x="0" y="0" width="15.9375" height="5.36363636"></rect>
                    <rect id="Rectangle-path" x="0" y="10.7272727" width="15.9375" height="5.36363636"></rect>
                    <rect id="Rectangle-path" x="69.0625" y="0" width="15.9375" height="5.36363636"></rect>
                    <rect id="Rectangle-path" x="69.0625" y="10.7272727" width="15.9375" height="5.36363636"></rect>
                </g>
                <g id="Group" transform="translate(15.937500, 91.181818)" fill="#1E88E5" sketch:type="MSShapeGroup">
                    <rect id="Rectangle-path" x="23.90625" y="0" width="5.3125" height="21.4545455"></rect>
                    <path d="M21.25,26.8181818 L5.3125,26.8181818 C2.390625,26.8181818 0,24.4045455 0,21.4545455 L0,18.7727273 C0,18.7727273 3.984375,13.4090909 13.28125,13.4090909 C22.578125,13.4090909 26.5625,18.7727273 26.5625,18.7727273 L26.5625,21.4545455 C26.5625,24.4045455 24.171875,26.8181818 21.25,26.8181818 L21.25,26.8181818 Z" id="Shape"></path>
                    <path d="M47.8125,26.8181818 L31.875,26.8181818 C28.953125,26.8181818 26.5625,24.4045455 26.5625,21.4545455 L26.5625,18.7727273 C26.5625,18.7727273 30.546875,13.4090909 39.84375,13.4090909 C49.140625,13.4090909 53.125,18.7727273 53.125,18.7727273 L53.125,21.4545455 C53.125,24.4045455 50.734375,26.8181818 47.8125,26.8181818 L47.8125,26.8181818 Z" id="Shape"></path>
                </g>
            </g>
        </g>
    </g>
</svg>